<svg width="585" height="396" viewBox="0 0 585 396" fill="none" xmlns="http://www.w3.org/2000/svg">
<path d="M566.337 -73.4159C551.048 -76.5972 537.327 -66.3464 536.543 -53.2678C469.899 -36.301 378.165 2.93485 301.72 48.5332C280.159 44.9985 256.245 42.1707 231.156 40.7568C84.1465 31.5664 -12.2916 61.2584 -55.4143 128.772C-124.019 235.168 -33.0689 394.586 -31.8928 396L-21.7002 389.991L-17.3879 387.87C-18.172 386.456 -105.593 230.927 -38.1652 133.367C2.99737 73.9835 93.163 48.1798 230.372 56.6632C248.405 57.7236 265.654 59.491 281.727 61.6118C220.571 98.7268 138.246 161.292 123.349 225.625C114.332 265.214 131.189 299.501 173.92 327.779C244.485 374.084 327.986 353.936 382.869 320.003C451.866 276.879 488.716 208.304 471.859 153.162C462.45 122.763 438.929 97.6664 401.294 78.9322C380.125 68.3279 355.036 59.8445 326.026 53.1284C400.902 10.3578 483.228 -23.9293 542.031 -38.7753C546.344 -33.8266 553.4 -30.6454 560.848 -30.6454C576.137 -30.6454 587.898 -43.017 584.37 -57.156C582.41 -65.286 575.353 -71.6485 566.337 -73.4159ZM455.002 157.05C469.899 206.183 436.185 267.688 373.069 307.278C322.889 338.383 247.229 356.764 184.113 315.407C146.87 291.018 132.366 262.74 140.206 229.159C152.751 174.724 222.923 114.987 305.64 65.1466C389.142 80.3461 441.281 112.159 455.002 157.05Z" fill="#272425"/>
</svg>
