<svg width="872" height="873" viewBox="0 0 872 873" fill="none" xmlns="http://www.w3.org/2000/svg">
<path d="M558.282 558.926C625.819 491.312 625.819 381.688 558.282 314.074C490.746 246.46 381.247 246.46 313.71 314.074C246.173 381.688 246.173 491.312 313.71 558.926C381.247 626.54 490.746 626.54 558.282 558.926Z" fill="#F3E55F"/>
<path d="M436 28.2915C211.169 28.2915 28.2593 211.411 28.2593 436.5C28.2593 661.588 211.169 844.708 436 844.708C660.831 844.708 843.741 661.588 843.741 436.5C843.741 211.411 660.831 28.2915 436 28.2915ZM436 814.945C227.568 814.945 57.988 645.195 57.988 436.5C57.988 227.804 227.568 58.0543 436 58.0543C644.432 58.0543 814.012 227.804 814.012 436.5C814.012 645.195 644.432 814.945 436 814.945Z" fill="#F3E55F"/>
</svg>
