<svg width="73" height="77" viewBox="0 0 73 77" fill="none" xmlns="http://www.w3.org/2000/svg">
<path d="M47.1215 49.5939C53.1262 43.2751 53.1262 33.0302 47.1215 26.7114C41.1167 20.3925 31.3811 20.3925 25.3764 26.7114C19.3717 33.0302 19.3717 43.2751 25.3764 49.5939C31.3811 55.9128 41.1167 55.9128 47.1215 49.5939Z" fill="white"/>
<path d="M36.2514 0C16.2694 0 0 17.1204 0 38.1478C0 59.1936 16.2694 76.2956 36.2514 76.2956C56.251 76.2956 72.5029 59.1752 72.5029 38.1478C72.5204 17.1204 56.251 0 36.2514 0ZM36.2514 73.5313C17.7229 73.5313 2.64443 57.664 2.64443 38.1478C2.64443 18.6316 17.7229 2.78276 36.2514 2.78276C54.7799 2.78276 69.8759 18.65 69.8759 38.1478C69.8759 57.6456 54.7974 73.5313 36.2514 73.5313Z" fill="white"/>
</svg>
